<svg width="233" height="200" viewBox="0 0 233 200" fill="none" xmlns="http://www.w3.org/2000/svg">
    <path d="M145.456 137.027H138.402V86.5856H98.9476V137.027H91.8945V80.1984H145.456V137.027Z"
        fill="#E48E07" />
    <path d="M114.609 83.3939H122.742V137.029H114.609V83.3939Z" fill="#E48E07" />
    <path d="M85.1719 133.835H101.227V140.223H85.1719V133.835Z" fill="#E48E07" />
    <path d="M136.117 133.835H152.171V140.223H136.117V133.835Z" fill="#E48E07" />
    <path d="M108.969 133.835H128.381V140.223H108.969V133.835Z" fill="#E48E07" />
    <path d="M85.1719 80.2007H152.172V86.5879H85.1719V80.2007Z" fill="#E48E07" />
    <path d="M94.8789 83.3931H142.468V90.1602H94.8789V83.3931Z" fill="#E48E07" />
    <path d="M81.6197 140.223H72.5156V64.2707H88.8748V70.6564H78.4891V133.835H81.6197V140.223Z"
        fill="#E48E07" />
    <path d="M164.832 140.223H155.728V133.835H158.858V70.6564H148.473V64.2707H164.832V140.223Z"
        fill="#E48E07" />
    <path
        d="M118.64 16.6447C117.123 18.8638 115.673 20.9422 114.28 23.0659C114.065 23.394 113.903 24.0728 114.07 24.333C115.505 26.5876 117.021 28.7824 118.632 31.1744C120.378 28.5982 121.965 26.2579 123.563 23.8999C121.895 21.4416 120.3 19.0917 118.64 16.6447ZM131.466 53.297H138.219C138.363 53.297 140.965 49.1902 142.565 47.2104C143.889 45.5748 145.594 44.2964 146.963 42.6963C148.647 40.731 149.332 38.3003 148.375 35.7693C147.41 33.2108 145.154 32.5676 142.783 32.191C142.71 32.4965 142.615 32.6985 142.621 32.8957C142.785 37.0671 141.073 40.3577 138.436 43.2442C136.876 44.9493 135.266 46.6269 133.896 48.4985C132.957 49.7818 132.254 51.6032 131.466 53.297ZM105.462 53.3051C105.352 52.7265 105.323 52.4097 105.232 52.1156C104.296 49.0771 102.27 46.8742 100.19 44.7344C96.9104 41.3565 94.2517 37.6877 94.7156 32.4173C94.7204 32.3559 94.5863 32.2799 94.423 32.1183C93.7394 32.3058 92.9571 32.4544 92.2169 32.7324C89.3142 33.8185 88.0245 36.1297 88.6063 39.131C89.0782 41.5618 90.5862 43.22 92.2573 44.778C98.428 50.5317 98.4361 53.2938 98.4361 53.297C98.4361 53.297 102.59 53.3051 105.462 53.3051ZM94.6283 57.4571C95.4315 52.8348 92.5305 50.5705 89.8944 48.0977C87.9792 46.3005 86.1271 44.416 85.2834 41.7492C83.0967 34.8464 86.5295 29.0895 93.4905 28.0778C94.9919 27.8596 96.057 27.365 97.0768 26.0494C99.5173 22.8994 103.073 22.1334 106.64 22.0622C109.308 22.0089 111.083 21.0634 112.516 18.6343C114.34 15.5473 116.496 12.6866 118.635 9.54151C120.767 12.6786 122.92 15.5409 124.741 18.6262C126.173 21.0505 127.948 22.0315 130.616 22.0687C133.867 22.114 137.201 22.7055 139.549 25.3658C140.991 26.9981 142.382 28.0115 144.506 28.2539C145.881 28.4123 147.292 29.1299 148.496 29.9283C153.376 33.1559 154.147 39.9488 150.177 45.0317C148.818 46.7756 147.158 48.2593 145.578 49.7947C143.785 51.537 142.344 53.415 142.643 56.232C142.691 56.6878 142.785 57.4571 142.785 57.4571H127.718C127.718 57.4571 127.685 56.5892 127.672 56.1852C127.516 51.6808 129.031 47.8666 131.807 44.5808C133.273 42.845 134.851 41.2159 136.331 39.4946C138.221 37.2998 139.069 34.7915 138.554 31.7385C138.167 29.4435 137.052 27.7965 135.053 27.2276C132.819 26.5941 130.479 26.3226 128.166 26.1254C127.525 26.0704 126.621 26.6717 126.181 27.2632C124.544 29.4677 122.922 31.711 121.557 34.1111C120.927 35.2214 120.659 36.7228 120.643 38.0514C120.555 45.2322 120.627 52.4162 120.568 59.597C120.58 60.161 120.57 64.4747 120.57 64.4747H142.739V70.8086H94.5911C94.5814 70.5484 94.5911 64.4747 94.5911 64.4747C94.5911 64.4747 96.1944 64.4682 97.767 64.4698C103.391 64.4698 109.017 64.4715 114.642 64.4731C115.23 64.4731 115.904 64.4747 116.649 64.4747C116.683 63.7571 116.689 59.9364 116.689 59.3772C116.694 52.3548 116.681 45.3324 116.686 38.31C116.688 36.4481 116.298 34.7414 115.228 33.227C113.85 31.2762 112.567 29.2479 111.128 27.3505C110.671 26.7476 109.816 26.0462 109.2 26.1044C106.793 26.3274 104.306 26.5052 102.043 27.3198C98.866 28.4608 97.5116 32.7001 99.0939 36.28C99.8793 38.0578 101.148 39.6466 102.401 41.1254C104.566 43.6822 107.204 45.9077 108.277 49.2597C109.25 51.5402 109.168 53.4198 109.489 55.8134C109.507 55.9557 109.514 57.4571 109.514 57.4571H94.6283Z"
        fill="#E48E07" />
    <path fill-rule="evenodd" clip-rule="evenodd"
        d="M213.811 65.933C215.134 71.9372 216.39 78.0109 216.022 84.3028C219.319 75.7951 223.351 67.664 227.498 59.4811C228.699 60.1002 229.1 61.12 229.342 62.177C230.238 66.093 230.9 70.0382 231.096 74.0722C231.306 78.2938 230.852 82.3844 229.577 86.4281C228.135 91.0117 224.87 93.9305 220.742 96.1173C219.618 96.712 218.347 96.3306 217.142 96.3904C216.398 96.426 215.912 96.573 215.855 97.4377C215.769 98.7113 215.451 99.9622 215.265 101.224C214.787 104.471 214.021 107.675 213.364 110.893C213.292 111.247 213.095 111.586 213.442 112.265C219.327 106.28 224.633 99.8685 231.199 94.6288C232.731 96.2789 231.752 98.1117 231.519 99.6729C230.794 104.536 229.879 109.39 227.585 113.87C226.128 116.719 224.576 119.48 222.499 121.965C219.774 125.224 216.403 126.948 212.073 126.799C211.323 126.773 210.568 126.833 209.823 126.783C208.968 126.722 208.401 127.026 208.029 127.79C206.21 131.525 203.803 134.919 201.563 138.412C201.434 138.614 201.408 138.879 201.217 139.491C202.694 138.78 203.873 138.213 205.018 137.51C209.987 134.468 215.306 132.062 220.502 129.43C220.98 129.188 221.455 128.669 222.021 129.072C222.696 129.553 222.354 130.203 222.129 130.814C219.332 138.41 214.249 144.406 208.243 149.757C206.321 151.469 204.27 152.878 201.676 153.578C197.978 154.571 194.368 154.852 190.788 153.302C189.761 152.857 189.02 152.883 187.992 153.547C183.984 156.151 180.759 159.597 177.216 162.833C185.614 161.417 193.909 159.666 202.268 158.44C202.668 159.421 201.912 159.736 201.518 160.166C195.845 166.332 189.259 171.251 181.482 174.684C177.388 176.491 173.178 176.601 168.903 176.194C167.485 176.061 166.013 175.334 164.961 174.298C163.482 172.837 162.288 173.113 160.566 174.068C155.592 176.829 150.221 178.705 144.776 180.43C139.869 181.988 134.731 182.549 129.816 184.034C128.745 184.36 127.686 184.648 126.72 185.319C129.343 187.624 131.917 189.881 134.482 192.152C134.969 192.582 135.429 193.043 135.876 193.515C137.76 195.512 137.951 197.394 136.43 198.842C134.883 200.316 133.256 200.004 131.014 198.121C127.898 195.509 125.218 192.395 121.525 190.433C118.461 188.805 116.659 188.917 114.11 191.323C112.145 193.182 110.407 195.2 109.412 197.743C109.024 198.737 108.339 199.482 107.298 199.824C105.257 200.495 103.264 199.179 103.096 197.004C102.979 195.499 103.416 194.092 104.274 192.833C105.627 190.854 106.818 188.757 108.744 187.207C109.163 186.867 109.615 186.494 109.771 185.792C108.502 184.874 106.929 184.517 105.434 184.197C99.7679 182.969 94.3342 180.874 88.6549 179.793C84.3655 178.978 80.4494 177.341 76.4736 175.749C74.72 175.048 73.1975 173.971 71.5991 173.015C70.7862 172.53 70.1558 172.405 69.372 173.149C68.5768 173.902 67.6475 174.558 66.6842 175.101C62.71 177.333 58.4836 177.333 54.2492 176.074C49.6898 174.718 45.4053 172.711 41.57 169.91C37.8301 167.18 34.0127 164.525 30.971 160.993C30.6703 160.644 30.3099 160.326 30.0869 159.933C29.8331 159.494 29.2028 159.038 29.6699 158.488C30.0788 158.013 30.6655 158.32 31.2215 158.432C36.3206 159.442 41.4181 160.475 46.5415 161.362C50.4608 162.041 54.3267 162.899 58.2444 163.915C55.5195 161.848 53.1695 159.411 50.485 157.357C48.5633 155.889 46.6756 154.386 44.8978 152.757C44.1656 152.088 43.7745 151.619 42.7289 152.71C41.7769 153.703 39.9037 153.533 38.5348 153.653C36.1073 153.866 33.6248 153.992 31.1116 153.053C29.324 152.385 27.4977 151.849 25.7409 151.021C24.7922 150.574 23.9486 150.045 23.2487 149.37C20.0551 146.292 16.6336 143.28 14.602 139.375C13.0343 136.354 10.7829 133.67 9.80353 130.353C9.671 129.902 9.4415 129.45 9.9005 129.112C10.3207 128.803 10.825 128.942 11.2048 129.228C14.9107 132.005 19.2987 133.498 23.412 135.515C27.3507 137.445 31.1035 139.737 35.1036 141.722C31.2716 135.85 27.4121 130.054 25.0282 123.547C23.8855 123.638 24.2896 124.357 24.2088 124.798C23.997 125.952 23.2972 126.568 22.1449 126.683C16.7791 127.21 12.4153 125.862 9.01321 121.307C5.35412 116.409 2.85869 111.087 1.43158 105.283C0.650951 102.112 0.455394 98.7986 0.0109373 95.5484C-0.0407813 95.1766 0.0755807 94.8227 0.692971 94.4397C8.42004 100.872 14.9253 108.546 21.6438 115.935C21.6503 114.277 20.6887 112.758 20.1828 111.117C18.8284 106.72 17.7746 102.251 16.8162 97.761C16.6207 96.8494 16.4122 96.3064 15.234 96.3662C9.42049 96.6652 5.98604 93.4441 3.53588 88.7183C0.861061 83.5513 0.709145 78.0885 0.962889 72.4528C1.10027 69.3949 2.0813 66.531 2.35283 63.5217C2.47889 62.143 3.31609 60.8226 3.8656 59.389C6.29637 62.2384 13.0666 76.4481 15.7043 84.125C16.5609 83.9893 16.1924 83.3056 16.2441 82.8741C16.8696 77.7039 16.6078 72.4366 17.9961 67.3521C18.3613 66.0187 18.0607 65.4013 16.5625 65.0668C12.0678 64.0615 9.91343 60.8436 9.28796 56.6932C8.1744 49.312 9.76959 42.3817 13.3026 35.7876C14.6101 33.3423 16.1455 31.0828 17.8183 28.8912C18.1868 28.4096 18.5003 27.7631 19.643 27.5951C21.1541 35.9735 22.3372 44.3713 22.6911 53.0697C23.357 51.822 24.2831 50.6421 24.6322 49.312C25.4726 46.1426 27.168 43.4064 28.7261 40.5861C29.3467 39.4612 29.8671 38.2814 30.3924 37.2066C30.318 36.2676 29.4501 36.2967 28.996 35.9023C26.4601 33.7221 25.3207 31.1038 25.2577 27.734C25.1817 23.6046 26.4424 20.0813 28.7681 16.7406C32.9944 10.6653 37.9223 5.28657 44.2642 1.25414C44.4097 1.16202 44.5956 1.12808 45.1774 0.909897C45.1499 5.05869 43.6081 8.76142 42.8468 12.5643C42.0856 16.3721 40.7684 20.0749 40.0476 24.1606C40.9672 23.2685 41.8577 22.344 42.8161 21.4906C43.8537 20.5662 44.914 19.6563 46.0308 18.8288C48.0106 17.3612 49.1015 15.3652 50.2361 13.2367C53.0532 7.94685 57.1987 4.01301 63.4502 2.7653C64.5508 2.54388 65.485 1.9378 66.5339 1.58547C69.7793 0.497764 73.1733 0.783829 76.4558 0.176136C78.0171 -0.11478 79.6236 0.117962 81.1056 0.854952C81.2381 1.2186 81.1153 1.51436 80.8293 1.81012C77.2251 5.52739 73.6501 9.27538 70.0249 12.9765C66.5759 16.4998 62.2752 18.575 57.53 19.8664C56.1886 20.2316 54.8471 20.5937 53.5089 20.9702C53.2471 21.0413 52.8931 21.0898 52.7622 21.2725C50.4899 24.4499 46.7839 26.2811 44.3418 29.8012C46.6481 29.4133 48.3565 28.2981 50.2765 27.7906C54.7114 26.6189 59.1576 25.8399 63.7734 25.9821C65.2038 26.0241 66.5355 26.4201 67.9012 26.677C68.7271 26.8322 69.1716 27.4447 68.197 28.1947C63.3694 31.9216 58.7487 35.933 53.5251 39.1267C48.2223 42.3688 42.6076 43.1155 36.597 40.2031C34.2518 44.229 31.6401 48.0869 30.6445 53.2313C33.8042 50.6454 37.0867 49.1908 40.3094 47.6182C43.2606 46.1798 46.5689 45.926 49.6106 44.7947C50.047 44.6315 50.5594 44.7317 50.8907 45.1228C51.2527 45.5559 51.0329 46.0182 50.784 46.3883C47.9605 50.5581 45.7899 55.1546 42.2472 58.8589C41.3583 59.7866 40.652 60.8856 39.7825 61.8311C36.2543 65.6631 31.8356 67.5137 26.5733 67.1694C25.2577 67.0805 24.7259 67.4248 24.5207 68.6289C24.0132 71.6027 23.176 74.5345 23.357 77.5907C23.4427 79.0631 23.2714 80.5128 22.8107 82.0369C23.7077 81.683 24.0584 81.0478 24.4092 80.4013C26.751 76.078 30.2227 72.9005 34.6381 70.6459C36.1202 69.8895 37.4729 68.8907 38.9566 68.1392C39.957 67.6333 40.6116 68.1876 40.3821 69.2834C39.4205 73.9074 38.7368 78.6251 37.0915 83.0535C35.4947 87.3461 33.2644 91.3802 28.9507 93.7948C27.6545 94.5189 26.4052 95.4191 24.831 95.369C23.5267 95.3286 23.1356 95.8975 23.4233 97.0401C24.3397 100.677 25.2738 104.31 26.3825 108.646C28.3656 105.247 28.9782 101.877 31.2247 99.3335C33.3953 96.8753 35.1682 94.0809 38.2665 91.7196C38.4508 95.3156 39.6435 98.304 39.6516 101.514C39.6613 104.252 39.5191 106.994 39.9021 109.726C39.9619 110.159 39.8132 110.629 39.7098 111.072C38.5897 115.877 37.2402 120.551 32.2769 123.119C33.8559 127.73 36.563 131.499 39.4075 135.241C38.8532 130.631 39.7971 126.243 40.8734 121.92C41.2274 120.499 41.7462 118.988 42.7078 117.711C43.8246 116.224 44.4 116.199 45.3746 117.842C46.1746 119.187 47.0296 120.512 47.6583 121.935C48.9852 124.941 50.6676 127.779 51.7909 130.885C52.578 133.056 52.7558 135.334 53.4394 137.515C53.6819 138.284 53.4556 139.139 53.1065 139.928C52.001 142.43 50.7533 144.839 48.5423 146.902C52.0398 150.419 56.0949 153.127 59.9285 156.222C58.5386 153.239 58.0472 150.099 57.3571 147.002C56.7074 144.089 56.667 141.182 57.1179 138.266C57.3814 136.581 58.2848 136.267 59.5503 137.368C63.1593 140.519 66.9703 143.517 69.8261 147.361C71.9466 150.212 74.2174 153 75.1838 156.596C76.139 160.145 75.402 163.217 73.4238 166.358C78.308 169.456 83.4233 171.911 89.2141 173.047C92.7762 173.748 96.2446 174.93 99.7437 175.94C105.478 177.592 111.409 178.626 116.896 181.076C117.761 181.461 118.526 181.068 119.322 180.781C122.041 179.8 124.742 178.757 127.504 177.91C131.336 176.738 135.324 176.137 139.194 175.134C146.787 173.165 154.071 170.387 161.258 166.029C158.509 166.041 157.656 164.648 157.281 162.737C156.46 158.577 157.281 154.766 159.681 151.248C163.126 146.187 167.466 141.943 172.239 138.097C172.728 137.699 173.148 137.017 173.894 137.277C174.758 137.578 174.684 138.452 174.724 139.141C174.996 143.634 174.841 148.128 173.341 152.411C172.517 154.781 171.125 156.963 169.695 159.817C175.056 156.069 178.939 151.485 184.048 148.201C181.627 146.263 179.835 144.022 179.285 141.096C178.737 138.184 178.881 135.257 179.728 132.393C181.061 127.887 183.576 123.901 185.658 119.732C186.333 118.377 186.765 116.816 188.297 115.69C192.784 123.368 193.233 131.457 191.374 140.206C196.587 134.955 199.73 128.739 203.423 122.198C201.956 122.667 201.254 124.005 200.091 123.41C199.187 122.95 198.292 122.41 197.543 121.742C194.004 118.592 191.93 114.751 191.964 109.967C191.989 105.939 191.892 101.923 192.928 97.9533C193.382 96.2175 193.304 94.3508 193.495 92.2626C196.745 93.0433 197.86 95.8474 199.659 97.7593C201.607 99.8265 202.864 102.419 204.031 105.034C205.17 107.591 205.3 110.32 206.085 113.412C206.478 111.418 206.835 109.847 207.095 108.26C207.708 104.475 208.794 100.774 209.127 96.9318C209.225 95.7957 208.928 95.4805 207.856 95.3981C203.381 95.0667 200.377 92.3176 197.978 89.0448C195.468 85.6136 194.279 81.5149 193.375 77.421C192.81 74.8496 191.875 72.3397 191.827 69.6584C191.816 69.1121 191.557 68.5513 192.092 68.1505C192.672 67.7189 193.117 68.207 193.606 68.4479C200.139 71.6382 205.76 75.7773 209.263 82.483C209.263 80.8151 209.452 79.1197 209.222 77.4824C208.81 74.5797 208.112 71.7191 207.595 68.8309C207.381 67.6543 206.909 67.1258 205.558 67.184C201.645 67.3504 198.03 66.4422 194.781 64.1585C193.627 63.3471 192.684 62.4501 191.762 61.3931C188.119 57.212 185.102 52.6317 182.193 47.956C181.655 47.0913 181.291 46.2056 180.724 44.8933C183.45 44.7527 185.716 45.7838 188.037 46.3091C190.384 46.8392 192.486 48.0352 194.688 48.9742C197.012 49.9682 198.835 51.7072 201.406 53.0034C200.771 50.7763 199.491 49.194 198.584 47.4372C197.522 45.3749 196.037 43.589 194.764 41.6673C194.271 40.9271 193.794 40.8738 192.903 41.1857C189.749 42.3025 186.59 42.0342 183.332 41.2698C179.161 40.2952 176.21 37.4491 172.854 35.2494C170.244 33.5378 168.12 31.1442 165.295 29.6589C164.738 29.3664 164.35 28.7765 163.868 28.3401C163.53 28.033 162.997 27.7664 163.173 27.2621C163.372 26.6981 163.975 26.6528 164.545 26.5429C168.631 25.7607 172.678 25.9045 176.766 26.6657C179.389 27.1554 181.941 27.8876 184.871 28.7539C182.653 26.2083 180.711 23.9893 178.786 21.7622C177.656 20.4595 175.94 20.4385 174.483 19.9957C168.961 18.318 164.141 15.6982 160.33 11.328C158.027 8.68384 155.432 6.2854 152.965 3.77866C152.579 3.38754 152.151 3.02874 151.797 2.61176C150.667 1.28809 150.908 0.59635 152.694 0.197148C154.367 -0.174579 156.072 0.0630089 157.733 0.231094C162.567 0.714339 167.212 1.91841 171.699 3.78997C177.186 6.08013 180.704 10.1303 182.846 15.4137C183.198 16.28 183.513 17.0493 184.155 17.7507C186.277 20.0748 188.317 22.4684 190.422 24.8055C191.088 25.5457 191.862 26.1954 192.58 26.8775C193.338 26.3409 192.79 25.8657 192.661 25.4019C191.615 21.6668 190.473 17.9609 189.61 14.1757C188.721 10.279 187.62 6.43247 186.574 2.57297C186.427 2.02023 186.173 1.4497 186.637 1.03111C187.36 0.374928 187.782 1.19597 188.263 1.51436C193.661 5.0991 198.146 9.56952 201.868 14.806C203.247 16.7471 204.92 18.5168 205.675 20.8102C206.945 24.6665 207.84 28.6181 206.001 32.5083C205.237 34.1342 203.845 35.4272 202.24 36.4535C201.34 37.0304 200.538 36.5294 199.092 36.2999C203.486 41.551 206.08 47.2142 209.4 52.546C209.377 47.6748 210.638 42.9813 210.772 38.1877C210.861 34.9763 212.046 31.9022 211.931 28.6698C211.915 28.2432 211.839 27.7066 212.437 27.5336C212.99 27.3769 213.347 27.7825 213.586 28.1333C214.829 29.9482 216.421 31.5079 217.515 33.4409C221.014 39.5938 223.416 46.1265 223.398 53.1877C223.39 57.671 221.866 61.8085 217.471 64.3362C216.34 64.9795 215.003 65.0829 213.811 65.933Z"
        fill="#E48E07" />
</svg>